<?xml version="1.0" encoding="UTF-8" standalone="no"?>
<!DOCTYPE svg PUBLIC "-//W3C//DTD SVG 1.1//EN" "http://www.w3.org/Graphics/SVG/1.1/DTD/svg11.dtd">
<svg width="100%" height="100%" viewBox="0 0 2435 2290" version="1.1" xmlns="http://www.w3.org/2000/svg" xmlns:xlink="http://www.w3.org/1999/xlink" xml:space="preserve" xmlns:serif="http://www.serif.com/" style="fill-rule:evenodd;clip-rule:evenodd;stroke-linejoin:round;stroke-miterlimit:2;">
    <g transform="matrix(4.16667,0,0,4.16667,0,-1.67084)">
        <path d="M158.306,223.053L150.673,226.869C115.058,244.678 76.204,255.088 36.456,257.473C31.427,257.775 27.504,261.94 27.504,266.979C27.504,272.017 31.427,276.182 36.456,276.484C82.62,279.253 128.869,275.372 172.681,262.534C206.167,252.724 188.032,208.189 158.306,223.053Z" style="fill:rgb(200,104,40);"/>
    </g>
    <g transform="matrix(4.16667,0,0,4.16667,0,-1.67084)">
        <path d="M244.346,549.918C378.924,549.918 488.689,537.054 488.689,521.276C488.689,505.501 378.924,492.634 244.346,492.634C109.764,492.634 0,505.501 0,521.276C0,537.054 109.764,549.918 244.346,549.918Z" style="fill:rgb(137,197,63);"/>
    </g>
    <g transform="matrix(4.16667,0,0,4.16667,0,-1.67084)">
        <path d="M191.859,518.928L58.395,518.928L58.395,518.101C58.395,496.792 75.773,479.414 97.082,479.414L191.859,479.414L191.859,518.928Z" style="fill:rgb(200,104,40);"/>
    </g>
    <g transform="matrix(4.16667,0,0,4.16667,0,-1.67084)">
        <path d="M39.914,254.655C65.307,242.375 95.849,253.004 108.131,278.397C117.431,297.631 113.59,319.814 100.145,334.781C96.625,338.699 94.197,343.113 92.917,347.83C92.171,350.57 90.455,352.636 87.899,353.872C85.343,355.11 82.658,355.171 80.048,354.054C75.552,352.132 70.586,351.294 65.33,351.617C45.25,352.865 25.473,342.104 16.172,322.872C3.891,297.48 14.521,266.937 39.914,254.655Z" style="fill:rgb(179,139,98);"/>
    </g>
    <g transform="matrix(4.16667,0,0,4.16667,0,-1.67084)">
        <path d="M72.833,351.971C70.416,351.579 67.908,351.458 65.33,351.617C45.25,352.865 25.473,342.104 16.172,322.872C11.656,313.534 10.241,303.499 11.516,293.934L33.086,268.926C49.859,273.267 66.632,277.606 83.405,281.948C66.213,292.38 49.02,302.811 31.827,313.244C34.021,332.545 47.737,345.428 72.834,351.968L72.833,351.971Z" style="fill:rgb(161,119,76);"/>
    </g>
    <g transform="matrix(4.16667,0,0,4.16667,0,-1.67084)">
        <path d="M32.131,238.565C60.416,224.886 94.435,236.726 108.113,265.009C108.771,266.37 109.368,267.744 109.91,269.128L7.801,318.512C7.052,317.227 6.346,315.905 5.687,314.546C-7.99,286.263 3.848,252.243 32.131,238.565Z" style="fill:rgb(82,51,22);"/>
    </g>
    <g transform="matrix(4.16667,0,0,4.16667,0,-1.67084)">
        <path d="M296.496,493.048L315.304,500.901C361.996,520.398 415.842,509.769 451.621,473.988C487.401,438.209 498.031,384.363 478.532,337.67C466.435,308.7 473.03,275.288 495.23,253.089C517.432,230.888 550.843,224.291 579.813,236.389L583.747,190.431C588.999,129.058 549.493,72.753 489.995,56.811C430.498,40.869 368.133,69.879 341.995,125.653C327.014,157.62 327.014,194.591 341.995,226.556C352.575,249.134 351.45,275.459 338.984,297.053C326.517,318.645 304.282,332.781 279.437,334.907L296.496,493.048Z" style="fill:rgb(239,126,33);"/>
    </g>
    <g transform="matrix(4.16667,0,0,4.16667,0,-1.67084)">
        <path d="M296.496,493.048L315.304,500.901C361.996,520.398 415.842,509.769 451.621,473.986C487.401,438.209 498.031,384.363 478.532,337.67C466.434,308.7 473.03,275.288 495.23,253.089C517.432,230.888 550.843,224.29 579.813,236.389L553.952,202.632C543.868,189.47 528.23,181.751 511.647,181.751C495.065,181.751 479.429,189.47 469.345,202.632C441.269,239.28 428.867,285.562 434.857,331.339C439.306,365.327 422.857,398.649 393.171,415.788C363.485,432.93 326.4,430.511 299.19,409.666L288.021,414.483L296.496,493.048Z" style="fill:rgb(200,104,40);"/>
    </g>
    <g transform="matrix(4.16667,0,0,4.16667,0,-1.67084)">
        <path d="M151.368,0.401C165.086,18.783 172.752,45.142 170.752,73.829C168.751,102.517 157.504,127.557 141.365,143.856C127.645,125.475 119.98,99.116 121.98,70.429C123.979,41.741 135.228,16.7 151.368,0.401Z" style="fill:rgb(200,104,40);"/>
    </g>
    <g transform="matrix(4.16667,0,0,4.16667,0,-1.67084)">
        <path d="M185.611,409.547C211.409,409.547 232.449,353.436 232.449,284.64C232.449,215.846 211.409,159.737 185.611,159.737C159.812,159.737 138.771,215.846 138.771,284.64C138.771,353.436 159.812,409.547 185.611,409.547Z" style="fill:rgb(251,174,93);"/>
    </g>
    <g transform="matrix(4.16667,0,0,4.16667,0,-1.67084)">
        <path d="M320.709,360.098C338.233,413.59 326.514,472.078 281.896,506.402C237.278,540.728 175.146,540.728 130.528,506.402C85.91,472.078 69.979,412.024 91.716,360.098C104.963,328.45 137.711,309.543 171.742,313.894C142.249,93.018 229.972,83.141 320.709,360.098Z" style="fill:rgb(236,121,35);"/>
    </g>
    <g transform="matrix(4.16667,0,0,4.16667,0,-1.67084)">
        <path d="M296.352,493.247C291.988,497.939 287.175,502.341 281.896,506.402C237.278,540.728 175.146,540.728 130.528,506.402C91.766,476.585 74.661,427.345 85.089,380.885C91.047,472.731 193.195,544.936 296.352,493.247Z" style="fill:rgb(200,104,40);"/>
    </g>
    <g transform="matrix(4.16667,0,0,4.16667,0,-1.67084)">
        <path d="M171.742,313.894C170.69,306.012 169.802,298.431 169.044,291.089C180.143,291.093 191.195,293.981 201.051,299.674C218.101,309.515 229.678,326.654 232.448,346.145L235.567,368.103C228.236,344.194 209.52,325.48 185.61,318.148L171.742,313.894Z" style="fill:rgb(200,104,40);"/>
    </g>
    <g transform="matrix(4.16667,0,0,4.16667,0,-1.67084)">
        <path d="M144.545,69.178C176.408,53.768 216.515,70.795 234.127,107.207C251.738,143.62 240.184,185.632 208.318,201.042C176.456,216.452 76.474,228.383 58.862,191.97C41.252,155.557 112.681,84.588 144.545,69.178Z" style="fill:rgb(236,121,35);"/>
    </g>
    <g transform="matrix(4.16667,0,0,4.16667,0,-1.67084)">
        <path d="M242.269,138.734C243.57,165.266 231.167,189.992 208.318,201.042C178.843,215.298 91.078,226.571 64.152,199.352C79.8,160.664 131.507,132.266 192.889,132.266C210.333,132.266 226.993,134.563 242.269,138.734Z" style="fill:rgb(251,174,93);"/>
    </g>
    <g transform="matrix(4.16667,0,0,4.16667,0,-1.67084)">
        <path d="M504.691,245.036C526.281,229.462 554.712,225.907 579.813,236.389L583.747,190.431C585.227,173.137 583.151,156.245 578.077,140.546C577.009,140.502 575.935,140.473 574.853,140.473C532.984,140.473 499.042,174.414 499.042,216.282C499.042,226.461 501.054,236.169 504.691,245.036Z" style="fill:rgb(251,174,93);"/>
    </g>
    <g transform="matrix(4.16667,0,0,4.16667,0,-1.67084)">
        <path d="M504.691,245.036C526.281,229.462 554.712,225.907 579.813,236.389L553.952,202.632C543.868,189.47 528.23,181.751 511.647,181.751C510.175,181.751 508.71,181.813 507.256,181.933C502.005,192.245 499.042,203.918 499.042,216.282C499.042,226.461 501.054,236.168 504.691,245.036Z" style="fill:rgb(235,152,64);"/>
    </g>
    <g transform="matrix(4.16667,0,0,4.16667,0,-1.67084)">
        <path d="M180.883,235.886L173.25,239.702C137.636,257.511 98.781,267.921 59.034,270.306C54.005,270.609 50.082,274.773 50.082,279.812C50.082,284.849 54.005,289.016 59.034,289.318C105.198,292.086 151.447,288.207 195.26,275.369C228.744,265.557 210.609,221.022 180.883,235.886Z" style="fill:rgb(236,121,35);"/>
    </g>
    <g transform="matrix(4.16667,0,0,4.16667,0,-1.67084)">
        <path d="M280.637,17.815C280.553,40.751 270.833,66.424 251.991,88.147C233.146,109.871 209.104,123.119 186.41,126.443C186.493,103.508 196.215,77.835 215.058,56.111C233.902,34.387 257.943,21.138 280.637,17.815Z" style="fill:rgb(236,121,35);"/>
    </g>
    <g transform="matrix(4.16667,0,0,4.16667,0,-1.67084)">
        <path d="M55.139,203.174C61.475,203.174 66.642,198.007 66.642,191.671C66.642,185.336 61.475,180.168 55.139,180.168C48.803,180.168 43.636,185.336 43.636,191.671C43.636,198.007 48.803,203.174 55.139,203.174Z" style="fill:rgb(82,51,22);"/>
    </g>
    <g transform="matrix(4.16667,0,0,4.16667,0,-1.67084)">
        <path d="M151.587,120.763C157.925,120.763 163.091,115.596 163.091,109.26C163.091,102.924 157.925,97.756 151.587,97.756C145.253,97.756 140.086,102.924 140.086,109.26C140.086,115.596 145.253,120.763 151.587,120.763Z" style="fill:rgb(82,51,22);"/>
    </g>
    <g transform="matrix(4.16667,0,0,4.16667,0,-1.67084)">
        <path d="M153.995,111.342C156.434,111.342 158.422,109.331 158.422,106.863C158.422,104.398 156.434,102.385 153.995,102.385C151.555,102.385 149.566,104.398 149.566,106.863C149.566,109.331 151.555,111.342 153.995,111.342Z" style="fill:white;"/>
    </g>
    <g transform="matrix(4.16667,0,0,4.16667,0,-1.67084)">
        <path d="M173.848,532.148L72.748,532.148L72.748,531.322C72.748,510.014 90.126,492.634 111.435,492.634L206.211,492.634L206.211,499.785C206.211,517.61 191.674,532.148 173.848,532.148Z" style="fill:rgb(236,121,35);"/>
    </g>
</svg>
